<?xml version="1.0" encoding="utf-8"?>
<!-- Generator: Adobe Illustrator 23.0.6, SVG Export Plug-In . SVG Version: 6.00 Build 0)  -->
<svg version="1.1" xmlns="http://www.w3.org/2000/svg" xmlns:xlink="http://www.w3.org/1999/xlink" x="0px" y="0px"
	 viewBox="0 0 183.7 72.5" style="enable-background:new 0 0 183.7 72.5;" xml:space="preserve">
<style type="text/css">
	.st0{font-family:'Chalkboard';}
	.st1{font-size:9.9618px;}
	.st2{fill:none;stroke:#1D1D1B;stroke-width:2;}
	.st3{font-size:22.9807px;}
	.st4{fill:#1D1D1B;}
	.st5{fill:#FFFFFF;stroke:#1D1D1B;}
	.st6{fill:#FFFFFF;stroke:#1D1D1B;stroke-width:2;}
	.st7{fill:#FFFFFF;stroke:#1D1D1B;stroke-width:0.25;}
	.st8{fill:#1D1D1B;stroke:#1D1D1B;stroke-width:2;}
	.st9{fill:#FFFFFF;}
	.st10{fill:none;stroke:#000000;stroke-width:2;}
</style>
<g id="etc">
	<text transform="matrix(0.942 0 0 1 82.103 48.7005)" class="st0 st1">soon on boraini.com</text>
	<g>
		<path class="st2" d="M165.2,59.5H82c-4.6,0-8.4-3.8-8.4-8.4V21.8l-7.5-8.4H82h83.2c4.6,0,8.4,3.8,8.4,8.4v29.3
			C173.5,55.7,169.8,59.5,165.2,59.5z"/>
	</g>
	<text transform="matrix(1 0 0 1 81.2641 36.4526)" class="st0 st3">Chateau</text>
</g>
<g id="katman_1">
	<path class="st4" d="M44.6,26.2H23.4c-2.7,0-4.7,1.9-4.5,4.2l2.3,25.8c0.1,1.6,2,2.8,4.2,2.8h17.1c2.2,0,4-1.3,4.2-2.8l2.3-25.8
		C49.3,28.1,47.3,26.2,44.6,26.2z"/>
	<desc>TriLizard character. Created and drewn by boraini.</desc>
	<g>
		<path class="st5" d="M64.3,61l1.1-5.6c0.4-2.2-1-4.4-3.3-4.8l-18-3.4c-2.2-0.4-4.4,1-4.8,3.3l-1.1,5.6c-0.4,2.2,1,4.4,3.3,4.8
			l18,3.4C61.7,64.7,63.8,63.2,64.3,61z"/>
		<path class="st6" d="M63.5,65l-3-0.6c-5.9-1.1-4.6-7.9,1.3-6.8l3,0.6l-3-0.6c-5.9-1.1-4.6-7.9,1.3-6.8l3,0.6L63.5,65z"/>
	</g>
	<g>
		<path class="st5" d="M4,61.1l-1.1-5.6c-0.4-2.2,1-4.4,3.3-4.8l18-3.4c2.2-0.4,4.4,1,4.8,3.3l1.1,5.6c0.4,2.2-1,4.4-3.3,4.8
			l-18,3.4C6.5,64.7,4.4,63.3,4,61.1z"/>
		<path class="st6" d="M2.2,51.5l3-0.6c5.9-1.1,7.2,5.7,1.3,6.8l-3,0.6l3-0.6c5.9-1.1,7.2,5.7,1.3,6.8l-3,0.6L2.2,51.5z"/>
	</g>
	<g>
		<path class="st5" d="M44.1,63.2l-5.6-0.5c-2.2-0.2-3.9-2.2-3.7-4.4l1.9-22.2c0.2-2.2,2.2-3.9,4.4-3.7l5.6,0.5
			c2.2,0.2,3.9,2.2,3.7,4.4l-1.9,22.2C48.3,61.7,46.4,63.4,44.1,63.2z"/>
		<path class="st6" d="M34.4,62.3l0.3-3c0.5-6,7.4-5.4,6.9,0.6l-0.3,3l0.3-3c0.5-6,7.4-5.4,6.9,0.6l-0.3,3L34.4,62.3z"/>
	</g>
	<g>
		<path class="st5" d="M22.5,63.2l5.6-0.5c2.2-0.2,3.9-2.2,3.7-4.4L30,36.1c-0.2-2.2-2.2-3.9-4.4-3.7l-5.6,0.5
			C17.6,33,16,35,16.2,37.3l1.9,22.2C18.3,61.7,20.3,63.4,22.5,63.2z"/>
		<path class="st6" d="M18.5,63.6l-0.3-3c-0.5-6,6.4-6.6,6.9-0.6l0.3,3l-0.3-3c-0.5-6,6.4-6.6,6.9-0.6l0.3,3L18.5,63.6z"/>
	</g>
	<g onclick="alert('Tiyze n\'aptin?!', 'TriLizard diyor ki:');">
		<path class="st6" d="M19.4,8.2l4-0.5c1.6-0.2,3.1,0.9,3.4,2.6l1.2,8.9c0.2,1.6-0.9,3.1-2.6,3.4l-4,0.5c-1.6,0.2-3.1-0.9-3.4-2.6
			l-1.2-8.9C16.6,9.9,17.8,8.4,19.4,8.2z"/>
		<path class="st6" d="M39.3,5.6l4-0.5c1.6-0.2,3.1,0.9,3.4,2.6l1.2,8.9c0.2,1.6-0.9,3.1-2.6,3.4l-4,0.5c-1.6,0.2-3.1-0.9-3.4-2.6
			L36.7,9C36.5,7.4,37.6,5.9,39.3,5.6z"/>
		<path class="st7" d="M20.8,11.1l2-0.3c1.1-0.1,2.1,0.6,2.2,1.7l0.3,2c0.1,1.1-0.6,2.1-1.7,2.2l-2,0.3c-1.1,0.1-2.1-0.6-2.2-1.7
			l-0.3-2C19,12.2,19.7,11.2,20.8,11.1z"/>
		<path class="st7" d="M40.7,8.5l2-0.3c1.1-0.1,2.1,0.6,2.2,1.7l0.3,2c0.1,1.1-0.6,2.1-1.7,2.2l-2,0.3c-1.1,0.1-2.1-0.6-2.2-1.7
			l-0.3-2C38.8,9.6,39.6,8.6,40.7,8.5z"/>
		<path class="st4" d="M21.9,11.9L21.9,11.9c1.1-0.1,2.1,0.6,2.2,1.7l0,0c0.1,1.1-0.6,2.1-1.7,2.2l0,0c-1.1,0.1-2.1-0.6-2.2-1.7l0,0
			C20.1,13.1,20.9,12.1,21.9,11.9z"/>
		<path class="st4" d="M41.8,9.4L41.8,9.4c1.1-0.1,2.1,0.6,2.2,1.7l0,0c0.1,1.1-0.6,2.1-1.7,2.2l0,0c-1.1,0.1-2.1-0.6-2.2-1.7l0,0
			C39.9,10.5,40.7,9.5,41.8,9.4z"/>
		<path class="st8" d="M10.8,19.4l43.6-5.7c1.6-0.2,3.1,0.9,3.4,2.6l1.2,8.9c0.2,1.6-0.9,3.1-2.6,3.4l-43.6,5.7
			c-1.6,0.2-3.1-0.9-3.4-2.6l-1.2-8.9C8,21.2,9.2,19.6,10.8,19.4z"/>
		<path class="st9" d="M14.2,22l37.7-4.9c1.6-0.2,3.1,0.9,3.4,2.6l0.4,3c0.2,1.6-0.9,3.1-2.6,3.4l-37.7,4.9
			c-1.6,0.2-3.1-0.9-3.4-2.6l-0.4-3C11.4,23.7,12.5,22.2,14.2,22z"/>
		<path class="st10" d="M12.4,31.3l4.3-9.6l6.6,8.2l4.3-9.6l6.6,8.2l4.3-9.6l6.6,8.2l4.3-9.6l6.6,8.2"/>
	</g>
</g>
</svg>
