<svg xmlns="http://www.w3.org/2000/svg" viewBox="0 0 173.53 62.15"><defs><style>.cls-1,.cls-8{fill:none;}.cls-1,.cls-3,.cls-4,.cls-5,.cls-6{stroke:#1d1d1b;}.cls-1,.cls-4,.cls-6,.cls-8{stroke-width:2px;}.cls-2,.cls-6{fill:#1d1d1b;}.cls-3,.cls-4,.cls-5,.cls-7{fill:#fff;}.cls-5{stroke-width:0.25px;}.cls-8{stroke:#000;}</style></defs><title>logo-full</title><g id="etc"><path d="M82.42,48.2a.6.6,0,0,1-.07-.38.44.44,0,0,1,.14-.26.35.35,0,0,1,.26-.1.54.54,0,0,1,.34.13,2.07,2.07,0,0,0,.59.52,2.11,2.11,0,0,0,.74.22l.23-.07.12-.1,0,0,0,0L85,48a.22.22,0,0,0,0-.1l0-.1v-.1a.41.41,0,0,0,0-.11L85,47.33l-.07-.09-.07-.09a2.27,2.27,0,0,0-.54-.27l-.53-.16a3.22,3.22,0,0,1-.5-.23,1.39,1.39,0,0,1-.46-.45,1.18,1.18,0,0,1-.23-.64,1.87,1.87,0,0,1,.11-.7,1.9,1.9,0,0,1,.37-.59,1,1,0,0,1,.56-.33,2,2,0,0,1,.93,0,2.79,2.79,0,0,1,.89.32.54.54,0,0,1,.23.34.51.51,0,0,1-.05.33.44.44,0,0,1-.25.19.51.51,0,0,1-.39,0,1.59,1.59,0,0,0-.55-.2,1.88,1.88,0,0,0-.58,0,.09.09,0,0,1-.07,0l-.07,0a.81.81,0,0,0-.17.27.68.68,0,0,0,0,.33l.06.14.06.08.07.08a2.44,2.44,0,0,0,.57.24,6,6,0,0,1,.6.19,2.62,2.62,0,0,1,.55.29,1.29,1.29,0,0,1,.39.53,1.77,1.77,0,0,1,.08,1.21,1.8,1.8,0,0,1-.72.93,1.2,1.2,0,0,1-.32.16,1,1,0,0,1-.33.06A2.53,2.53,0,0,1,83.33,49,2.33,2.33,0,0,1,82.42,48.2Z" transform="translate(-0.99 -4.1)"/><path d="M86.77,46.21a7.22,7.22,0,0,1,.29-.72,3.49,3.49,0,0,1,.41-.64,2.55,2.55,0,0,1,.55-.49,2.13,2.13,0,0,1,.69-.3,1.54,1.54,0,0,1,1.11.1,1.88,1.88,0,0,1,.75.73A2.83,2.83,0,0,1,91,46a3,3,0,0,1,0,1.16,3.74,3.74,0,0,1-.58,1.27,2.38,2.38,0,0,1-1,.85,1.71,1.71,0,0,1-.9.14,1.65,1.65,0,0,1-.77-.29,2,2,0,0,1-.58-.64,2.51,2.51,0,0,1-.33-.88,3.23,3.23,0,0,1,0-.62,4.11,4.11,0,0,1,.08-.6Zm.85.27a4.16,4.16,0,0,0-.06.44,2.4,2.4,0,0,0,0,.46,1.33,1.33,0,0,0,.19.56,1,1,0,0,0,.37.38.86.86,0,0,0,.48.13,1.15,1.15,0,0,0,.54-.18,1.72,1.72,0,0,0,.57-.6,3.11,3.11,0,0,0,.32-.8,2,2,0,0,0,0-.74,1.87,1.87,0,0,0-.22-.69,1.08,1.08,0,0,0-.47-.43.83.83,0,0,0-.7,0,1.45,1.45,0,0,0-.68.59A3.21,3.21,0,0,0,87.62,46.48Z" transform="translate(-0.99 -4.1)"/><path d="M91.94,46.21a5.5,5.5,0,0,1,.3-.72,3,3,0,0,1,.41-.64,2.33,2.33,0,0,1,.55-.49,2.13,2.13,0,0,1,.69-.3,1.51,1.51,0,0,1,1.1.1,1.9,1.9,0,0,1,.76.73,3,3,0,0,1,.33,2.24,3.74,3.74,0,0,1-.58,1.27,2.38,2.38,0,0,1-1,.85,1.72,1.72,0,0,1-.9.14,1.61,1.61,0,0,1-.77-.29,1.89,1.89,0,0,1-.58-.64,2.51,2.51,0,0,1-.33-.88,2.59,2.59,0,0,1,0-.62,4.09,4.09,0,0,1,.07-.6Zm.85.27a4.16,4.16,0,0,0-.06.44,2.46,2.46,0,0,0,0,.46,1.32,1.32,0,0,0,.18.56,1.22,1.22,0,0,0,.37.38.92.92,0,0,0,.49.13,1.19,1.19,0,0,0,.54-.18,1.82,1.82,0,0,0,.57-.6,3.11,3.11,0,0,0,.32-.8,2,2,0,0,0,0-.74,1.87,1.87,0,0,0-.23-.69,1,1,0,0,0-.46-.43.83.83,0,0,0-.7,0,1.52,1.52,0,0,0-.69.59A4,4,0,0,0,92.79,46.48Z" transform="translate(-0.99 -4.1)"/><path d="M100.91,49.09a.42.42,0,0,1-.3.14.41.41,0,0,1-.28-.12.58.58,0,0,1-.16-.38c0-.35,0-.71,0-1.06V45.86a5,5,0,0,0,0-.77.44.44,0,0,0-.19-.21.61.61,0,0,0-.24,0A1.5,1.5,0,0,0,99,45a1.46,1.46,0,0,0-.57.53l-.19.32a1.12,1.12,0,0,0-.09.39v1.18c0,.39,0,.78,0,1.18A.61.61,0,0,1,98,49a.45.45,0,0,1-.3.13.41.41,0,0,1-.28-.12.58.58,0,0,1-.16-.38V47.59c0-.35,0-.69,0-1V44.45a.64.64,0,0,1,.17-.35.36.36,0,0,1,.27-.11.39.39,0,0,1,.27.1.66.66,0,0,1,.18.32v.1a2.34,2.34,0,0,1,.71-.46,2.09,2.09,0,0,1,.8-.17,1.57,1.57,0,0,1,.76.2,1.47,1.47,0,0,1,.57.63,1.23,1.23,0,0,1,.1.38,3.59,3.59,0,0,1,0,.47,4.34,4.34,0,0,1,0,.51c0,.17,0,.34,0,.49V48.7A.56.56,0,0,1,100.91,49.09Z" transform="translate(-0.99 -4.1)"/><path d="M105.78,46.21a5.42,5.42,0,0,1,.29-.72,3.49,3.49,0,0,1,.41-.64,2.55,2.55,0,0,1,.55-.49,2.13,2.13,0,0,1,.69-.3,1.54,1.54,0,0,1,1.11.1,1.88,1.88,0,0,1,.75.73A2.83,2.83,0,0,1,110,46a3,3,0,0,1,0,1.16,3.74,3.74,0,0,1-.58,1.27,2.38,2.38,0,0,1-1,.85,1.71,1.71,0,0,1-.9.14,1.65,1.65,0,0,1-.77-.29,2,2,0,0,1-.58-.64,2.51,2.51,0,0,1-.33-.88,3.23,3.23,0,0,1,0-.62c0-.2,0-.4.07-.6Zm.85.27a4.16,4.16,0,0,0-.06.44,2.4,2.4,0,0,0,0,.46,1.33,1.33,0,0,0,.19.56,1,1,0,0,0,.37.38.86.86,0,0,0,.48.13,1.15,1.15,0,0,0,.54-.18,1.72,1.72,0,0,0,.57-.6,3.11,3.11,0,0,0,.32-.8,2,2,0,0,0,0-.74,1.87,1.87,0,0,0-.22-.69,1.08,1.08,0,0,0-.47-.43.83.83,0,0,0-.7,0,1.45,1.45,0,0,0-.68.59A3.21,3.21,0,0,0,106.63,46.48Z" transform="translate(-0.99 -4.1)"/><path d="M114.74,49.09a.39.39,0,0,1-.58,0,.64.64,0,0,1-.16-.38c0-.35,0-.71,0-1.06V45.86a4,4,0,0,0,0-.77.4.4,0,0,0-.19-.21.57.57,0,0,0-.24,0,1.5,1.5,0,0,0-.73.19,1.36,1.36,0,0,0-.56.53c-.08.13-.15.24-.19.32a1.09,1.09,0,0,0-.1.39v1.18c0,.39,0,.78,0,1.18a.56.56,0,0,1-.14.4.45.45,0,0,1-.3.13.39.39,0,0,1-.28-.12.59.59,0,0,1-.17-.38v-2.1c0-.34,0-.68,0-1V44.45a.72.72,0,0,1,.18-.35.36.36,0,0,1,.27-.11.39.39,0,0,1,.26.1.53.53,0,0,1,.18.32v.1a2.27,2.27,0,0,1,.72-.46,2.05,2.05,0,0,1,.8-.17,1.53,1.53,0,0,1,.75.2,1.36,1.36,0,0,1,.57.63,1,1,0,0,1,.1.38c0,.15,0,.31,0,.47s0,.34,0,.51,0,.34,0,.49V48.7A.52.52,0,0,1,114.74,49.09Z" transform="translate(-0.99 -4.1)"/><path d="M120.6,48.86a.61.61,0,0,1-.35.1.46.46,0,0,1-.26-.13.47.47,0,0,1-.11-.27.65.65,0,0,1,.09-.37l0,0v-6a.58.58,0,0,1,.17-.33.36.36,0,0,1,.53,0,.66.66,0,0,1,.19.33v2.74a1.88,1.88,0,0,1,.52-.38,1.75,1.75,0,0,1,.47-.21,3.4,3.4,0,0,1,.5-.1,1,1,0,0,1,.54.06,3.78,3.78,0,0,1,.49.25,1.26,1.26,0,0,1,.48.54,3.1,3.1,0,0,1,.22.75,3.64,3.64,0,0,1,.06.81,5,5,0,0,1-.07.73.88.88,0,0,1-.1.35c0,.11-.1.22-.16.33a1.62,1.62,0,0,1-.41.55,2.34,2.34,0,0,1-.58.36,2.66,2.66,0,0,1-.67.18,2.35,2.35,0,0,1-.64,0,2.41,2.41,0,0,1-.48-.08,1.38,1.38,0,0,1-.45-.2A0,0,0,0,1,120.6,48.86Zm.29-2.57v1.62L121,48l0,0a.05.05,0,0,1,0,0,1.63,1.63,0,0,0,1.08.08,1.82,1.82,0,0,0,.9-.63,3.35,3.35,0,0,0,.16-.52,2.5,2.5,0,0,0,.05-.47,2.61,2.61,0,0,0-.05-.48,2.89,2.89,0,0,0-.14-.52l-.09-.12-.09-.12-.11-.06-.1-.06-.12,0-.12,0a1.78,1.78,0,0,0-.86.37,3.78,3.78,0,0,0-.63.72Z" transform="translate(-0.99 -4.1)"/><path d="M125.11,46.21a5.5,5.5,0,0,1,.3-.72,3,3,0,0,1,.41-.64,2.33,2.33,0,0,1,.55-.49,2.13,2.13,0,0,1,.69-.3,1.51,1.51,0,0,1,1.1.1,1.9,1.9,0,0,1,.76.73,3.18,3.18,0,0,1,.33,2.24,3.94,3.94,0,0,1-.58,1.27,2.41,2.41,0,0,1-1,.85,1.68,1.68,0,0,1-.89.14,1.57,1.57,0,0,1-.77-.29,2,2,0,0,1-.59-.64,2.5,2.5,0,0,1-.32-.88,2.59,2.59,0,0,1,0-.62,4.09,4.09,0,0,1,.07-.6Zm.85.27a4.16,4.16,0,0,0-.06.44,2.46,2.46,0,0,0,0,.46,1.32,1.32,0,0,0,.18.56,1.12,1.12,0,0,0,.37.38.92.92,0,0,0,.49.13,1.16,1.16,0,0,0,.53-.18,1.85,1.85,0,0,0,.58-.6,3.52,3.52,0,0,0,.32-.8,2,2,0,0,0,0-.74,1.7,1.7,0,0,0-.22-.69,1,1,0,0,0-.47-.43.81.81,0,0,0-.69,0,1.52,1.52,0,0,0-.69.59A4,4,0,0,0,126,46.48Z" transform="translate(-0.99 -4.1)"/><path d="M130.44,45a.63.63,0,0,1-.24-.21.51.51,0,0,1-.07-.26.42.42,0,0,1,.12-.3.4.4,0,0,1,.32-.14.86.86,0,0,1,.38.12,1.33,1.33,0,0,1,.36.25A3.87,3.87,0,0,1,132,44a1.41,1.41,0,0,1,.73-.2,1.24,1.24,0,0,1,.31.06,1.62,1.62,0,0,1,.41.17,1.43,1.43,0,0,1,.35.3.67.67,0,0,1,.16.43.45.45,0,0,1-.12.32.41.41,0,0,1-.3.12.32.32,0,0,1-.21-.08l-.18-.16-.2-.16a.48.48,0,0,0-.23-.07.77.77,0,0,0-.34.1,2.71,2.71,0,0,0-.35.24,3.27,3.27,0,0,0-.35.3l-.28.29v3.07a.59.59,0,0,1-.15.4.4.4,0,0,1-.58,0,.58.58,0,0,1-.16-.38V45.6a.11.11,0,0,0,0-.05v-.1a.13.13,0,0,0,0-.06v-.33Z" transform="translate(-0.99 -4.1)"/><path d="M138.19,48.55h0a.46.46,0,0,1,0,.3.41.41,0,0,1-.13.22.38.38,0,0,1-.24.11.51.51,0,0,1-.32-.07,1.92,1.92,0,0,1-.18-.22,2.13,2.13,0,0,1-.16-.25,4.06,4.06,0,0,1-.46.36,1,1,0,0,1-.5.18,8.26,8.26,0,0,1-.86,0,1.29,1.29,0,0,1-.81-.3,1.63,1.63,0,0,1-.48-.57,2.25,2.25,0,0,1-.22-.71,2.84,2.84,0,0,1,0-.77,3.16,3.16,0,0,1,.18-.75,2.92,2.92,0,0,1,.14-.31l.18-.31a3.23,3.23,0,0,1,.27-.44,1.93,1.93,0,0,1,.35-.35l.27-.21.28-.19a1.38,1.38,0,0,1,.3-.15l.44-.13a2.4,2.4,0,0,1,.46,0,1.15,1.15,0,0,1,.4.07.43.43,0,0,1,.3.08.61.61,0,0,1,.22.34c0,.52,0,1,0,1.58a10.4,10.4,0,0,0,.1,1.58.79.79,0,0,0,.08.25l.15.28a2.43,2.43,0,0,1,.15.26A.45.45,0,0,1,138.19,48.55Zm-1.39-.8,0,0,0,0a7.46,7.46,0,0,1-.14-1.43c0-.5,0-1,0-1.37l-.22,0-.23.06-.21.08a.4.4,0,0,0-.13.06,1.83,1.83,0,0,0-.56.42,2.05,2.05,0,0,0-.37.58,2.94,2.94,0,0,0-.23.67,3.35,3.35,0,0,0-.07.71,1.21,1.21,0,0,0,.05.18l.06.18L135,48l.12.13.2.08.2.07h.36a.8.8,0,0,0,.34-.05l.32-.23A2.42,2.42,0,0,0,136.8,47.75Z" transform="translate(-0.99 -4.1)"/><path d="M139.19,42.39a.64.64,0,0,1,.15-.43.46.46,0,0,1,.37-.18.47.47,0,0,1,.37.18.6.6,0,0,1,.16.43.6.6,0,0,1-.16.42.47.47,0,0,1-.37.18.46.46,0,0,1-.37-.18A.64.64,0,0,1,139.19,42.39Zm1,6.28a.59.59,0,0,1-.15.4.41.41,0,0,1-.3.13.39.39,0,0,1-.28-.12.61.61,0,0,1-.17-.37c0-.73,0-1.47,0-2.22s0-1.49,0-2.22a.73.73,0,0,1,.18-.34.37.37,0,0,1,.27-.12.4.4,0,0,1,.26.11.51.51,0,0,1,.18.32c0,.72,0,1.46,0,2.22S140.18,48,140.19,48.67Z" transform="translate(-0.99 -4.1)"/><path d="M145.37,49.09a.42.42,0,0,1-.3.14.39.39,0,0,1-.28-.12.59.59,0,0,1-.17-.38V47.67c0-.35,0-.7,0-1.05s0-.51,0-.76a6.64,6.64,0,0,0-.05-.77.44.44,0,0,0-.19-.21.62.62,0,0,0-.25,0,1.57,1.57,0,0,0-1.29.72l-.19.32a.93.93,0,0,0-.09.39v1.18c0,.39,0,.78,0,1.18a.61.61,0,0,1-.15.4.45.45,0,0,1-.3.13.41.41,0,0,1-.28-.12.58.58,0,0,1-.16-.38V47.59c0-.35,0-.69,0-1s0-.68,0-1V44.45a.72.72,0,0,1,.18-.35.36.36,0,0,1,.27-.11.43.43,0,0,1,.27.1.66.66,0,0,1,.18.32v.1a2.23,2.23,0,0,1,.71-.46,2.05,2.05,0,0,1,.8-.17,1.5,1.5,0,0,1,.75.2,1.43,1.43,0,0,1,.58.63,1.23,1.23,0,0,1,.1.38,3.59,3.59,0,0,1,0,.47v.51c0,.17,0,.34,0,.49V48.7A.51.51,0,0,1,145.37,49.09Z" transform="translate(-0.99 -4.1)"/><path d="M146.84,42.39A.6.6,0,0,1,147,42a.45.45,0,0,1,.36-.18.49.49,0,0,1,.38.18.64.64,0,0,1,0,.85.49.49,0,0,1-.38.18.45.45,0,0,1-.36-.18A.6.6,0,0,1,146.84,42.39Zm1,6.28a.54.54,0,0,1-.14.4.41.41,0,0,1-.3.13.44.44,0,0,1-.29-.12.61.61,0,0,1-.16-.37c0-.73,0-1.47,0-2.22s0-1.49,0-2.22a.73.73,0,0,1,.17-.34.37.37,0,0,1,.27-.12.4.4,0,0,1,.27.11.61.61,0,0,1,.18.32c0,.72,0,1.46,0,2.22S147.84,48,147.84,48.67Z" transform="translate(-0.99 -4.1)"/><path d="M150.43,48.44a.62.62,0,0,1-.19.46.61.61,0,0,1-.45.19.65.65,0,0,1-.68-.65.68.68,0,0,1,.19-.46.66.66,0,0,1,.49-.2.62.62,0,0,1,.45.2A.63.63,0,0,1,150.43,48.44Z" transform="translate(-0.99 -4.1)"/><path d="M154.27,47.8a.48.48,0,0,1,.36-.15.41.41,0,0,1,.29.12.51.51,0,0,1,.12.31.55.55,0,0,1-.14.38,1.93,1.93,0,0,1-.84.59,1.88,1.88,0,0,1-1,.1,1.85,1.85,0,0,1-.88-.4,1.9,1.9,0,0,1-.59-.87,3.57,3.57,0,0,1-.18-.66,3.91,3.91,0,0,1,0-.68,3.81,3.81,0,0,1,.24-1.12,3.33,3.33,0,0,1,.58-1,2.16,2.16,0,0,1,.86-.61,1.54,1.54,0,0,1,1.08,0,2.69,2.69,0,0,1,.54.25,2.6,2.6,0,0,1,.45.38.67.67,0,0,1,.12.36.41.41,0,0,1-.09.28.46.46,0,0,1-.25.15.52.52,0,0,1-.35-.07,1.43,1.43,0,0,0-.7-.46.91.91,0,0,0-.63.07,1.4,1.4,0,0,0-.51.44,2.34,2.34,0,0,0-.34.69,2.74,2.74,0,0,0-.12.81,2,2,0,0,0,.15.78,1.2,1.2,0,0,0,.36.5,1,1,0,0,0,.47.2,1.07,1.07,0,0,0,.52-.08A1.41,1.41,0,0,0,154.27,47.8Z" transform="translate(-0.99 -4.1)"/><path d="M155.81,46.21a5.5,5.5,0,0,1,.3-.72,3,3,0,0,1,.41-.64,2.33,2.33,0,0,1,.55-.49,2.13,2.13,0,0,1,.69-.3,1.51,1.51,0,0,1,1.1.1,1.9,1.9,0,0,1,.76.73,3.18,3.18,0,0,1,.33,2.24,3.74,3.74,0,0,1-.58,1.27,2.44,2.44,0,0,1-1,.85,1.73,1.73,0,0,1-.9.14,1.61,1.61,0,0,1-.77-.29,2,2,0,0,1-.59-.64,2.71,2.71,0,0,1-.32-.88,2.59,2.59,0,0,1,0-.62,4.09,4.09,0,0,1,.07-.6Zm.85.27a4.16,4.16,0,0,0-.06.44,2.46,2.46,0,0,0,0,.46,1.32,1.32,0,0,0,.18.56,1.12,1.12,0,0,0,.37.38.92.92,0,0,0,.49.13,1.23,1.23,0,0,0,.54-.18,1.93,1.93,0,0,0,.57-.6,3.52,3.52,0,0,0,.32-.8,2.26,2.26,0,0,0,0-.74,1.87,1.87,0,0,0-.23-.69,1,1,0,0,0-.47-.43.81.81,0,0,0-.69,0,1.52,1.52,0,0,0-.69.59A4,4,0,0,0,156.66,46.48Z" transform="translate(-0.99 -4.1)"/><path d="M163.73,45.75a.22.22,0,0,1,0-.09v-.13a1,1,0,0,0-.41-.52,1.47,1.47,0,0,0-.62-.17,1.68,1.68,0,0,0-.46.24l-.23.31-.06.08-.07.05V48.7a.56.56,0,0,1-.15.39.39.39,0,0,1-.58,0,.64.64,0,0,1-.16-.38V44.26a.73.73,0,0,1,.17-.34.41.41,0,0,1,.28-.11.44.44,0,0,1,.25.1.62.62,0,0,1,.18.31,2.1,2.1,0,0,1,.42-.24,1.27,1.27,0,0,1,.52-.11,1.7,1.7,0,0,1,.79.21,2,2,0,0,1,.66.54l.26-.26a1.68,1.68,0,0,1,.29-.24,2,2,0,0,1,.31-.19.78.78,0,0,1,.33-.07,1.92,1.92,0,0,1,.66.12,1.94,1.94,0,0,1,.58.33,2,2,0,0,1,.42.5,1.27,1.27,0,0,1,.15.6v0s0,0,0,0,0,0,0,0l0,0v3.13a.59.59,0,0,1-.15.4.41.41,0,0,1-.3.13.39.39,0,0,1-.28-.12.64.64,0,0,1-.17-.37V45.52A.89.89,0,0,0,166,45a1,1,0,0,0-.5-.14A.9.9,0,0,0,165,45a1.09,1.09,0,0,0-.38.55v3.11a.58.58,0,0,1-.14.4.44.44,0,0,1-.3.13.42.42,0,0,1-.29-.12.64.64,0,0,1-.16-.38V45.8A.07.07,0,0,1,163.73,45.75Z" transform="translate(-0.99 -4.1)"/><path class="cls-1" d="M165.16,59.49H82a8.37,8.37,0,0,1-8.36-8.37V21.78l-7.53-8.36h99.08a8.37,8.37,0,0,1,8.36,8.36V51.12A8.37,8.37,0,0,1,165.16,59.49Z" transform="translate(-0.99 -4.1)"/><path d="M93.65,23.86A1.16,1.16,0,0,1,92.57,23a1.81,1.81,0,0,0-.58-.87A3,3,0,0,0,90.82,22q-1.62,0-3.61,2.49a10.37,10.37,0,0,0-2.69,6.34,3.6,3.6,0,0,0,.93,2.49,3,3,0,0,0,2.3,1.08,5.15,5.15,0,0,0,2.32-.59,17.93,17.93,0,0,0,2-1.33A2,2,0,0,1,93,32a1,1,0,0,1,.81.37,1.17,1.17,0,0,1,.33.81,1.15,1.15,0,0,1-.43.89,9,9,0,0,1-6,2.62,5.08,5.08,0,0,1-3.93-1.78,5.94,5.94,0,0,1-1.55-4.09c0-2.53,1.07-5.13,3.19-7.8q2.66-3.33,5.36-3.33a9.61,9.61,0,0,1,1,.05,5.09,5.09,0,0,1,.78.16,1.19,1.19,0,0,1,1-.57c.51,0,.84.34,1,1a11.78,11.78,0,0,1,.18,2.24,1.37,1.37,0,0,1-.24.8A1,1,0,0,1,93.65,23.86Z" transform="translate(-0.99 -4.1)"/><path d="M106.06,37.15a1,1,0,0,1-1-.85,19.39,19.39,0,0,1-.47-2.62,21.25,21.25,0,0,1-.2-2.67c0-.19,0-.49,0-.89s0-.69,0-.88c0-1.41-.35-2.11-1.05-2.11a3.33,3.33,0,0,0-2.55,1.29,15.2,15.2,0,0,0-1.57,2.52A18.82,18.82,0,0,1,98.87,36a1,1,0,0,1-1,.7,1.2,1.2,0,0,1-.8-.31,1,1,0,0,1-.35-.77,1.81,1.81,0,0,1,.1-.49A8.83,8.83,0,0,0,97,33.49l0-1.66,0-8.25c0-.93.08-1.55.08-1.87A5.34,5.34,0,0,0,97,20.63a5.39,5.39,0,0,1-.11-1.07,1,1,0,0,1,.33-.78,1.14,1.14,0,0,1,.8-.3,1,1,0,0,1,1.07,1,12.2,12.2,0,0,1,.18,2c0,.78,0,1.6-.08,2.46s-.06,1.63,0,2.45v1a6.8,6.8,0,0,1,2-1.85,4.43,4.43,0,0,1,2.23-.61,2.72,2.72,0,0,1,2.56,1.21,6.78,6.78,0,0,1,.56,2.88l.09,2.14.22,2.33c.11.88.23,1.65.38,2.32a1.39,1.39,0,0,1,0,.32,1,1,0,0,1-.34.77A1.12,1.12,0,0,1,106.06,37.15Z" transform="translate(-0.99 -4.1)"/><path d="M118.71,37.19c-.14,0-.4-.16-.78-.49a5.76,5.76,0,0,1-.75-.82,15,15,0,0,1-1.89.88,4.2,4.2,0,0,1-1.37.3,4.67,4.67,0,0,1-3.83-1.48A6.72,6.72,0,0,1,109,31.31a6.4,6.4,0,0,1,1.87-4.64,6,6,0,0,1,4.46-1.93,5.81,5.81,0,0,1,2.18.5c1,.42,1.53.93,1.53,1.52a.76.76,0,0,1-.22.54,7.38,7.38,0,0,0-.18,1.4c0,.65-.06,1.48-.07,2.5a9.27,9.27,0,0,0,.19,2.2,15.66,15.66,0,0,0,.71,2c0,.13.13.33.26.59l.06.19a1,1,0,0,1-.31.74A1,1,0,0,1,118.71,37.19Zm-2.34-7.8a7.78,7.78,0,0,1,.07-1c0-.38.1-.78.18-1.21a6.48,6.48,0,0,0-.71-.32,1.86,1.86,0,0,0-.48-.1,3.91,3.91,0,0,0-3,1.42,4.79,4.79,0,0,0-1.26,3.27,4.8,4.8,0,0,0,.65,2.76,2.21,2.21,0,0,0,2,.93,3.93,3.93,0,0,0,1.83-.4,6.13,6.13,0,0,0,1.13-.85A40.67,40.67,0,0,1,116.37,29.39Z" transform="translate(-0.99 -4.1)"/><path d="M129.21,26.89c-.16,0-.34,0-.55,0s-.4,0-.56,0-.68,0-1.53.17l.22,6.63v1.06c0,1.64-.36,2.46-1.18,2.46a1.16,1.16,0,0,1-.78-.29,1,1,0,0,1-.33-.73c0-.28,0-.71,0-1.28s0-1,0-1.28L124.36,27c-.54,0-1.37-.09-2.49-.19a1,1,0,0,1-1-1.11,1.16,1.16,0,0,1,.31-.82,1,1,0,0,1,.77-.33l2.36.19c0-.38,0-.89,0-1.53s-.05-1.1-.05-1.38a1,1,0,0,1,.32-.78,1.12,1.12,0,0,1,.8-.31c.67,0,1.06.55,1.18,1.65,0,.27,0,.61,0,1l0,.66v.69q1.39-.18,1.59-.18a6.76,6.76,0,0,1,1.53.11,1,1,0,0,1,.68,1.06,1.09,1.09,0,0,1-.31.81A1,1,0,0,1,129.21,26.89Z" transform="translate(-0.99 -4.1)"/><path d="M137.77,37a6.28,6.28,0,0,1-4.1-1.27A4.76,4.76,0,0,1,132,31.77a8.21,8.21,0,0,1,1.41-4.89,4.81,4.81,0,0,1,4.11-2.15,6.54,6.54,0,0,1,3,.62A2.53,2.53,0,0,1,142,27.73a2.58,2.58,0,0,1-1.27,2.05A18.13,18.13,0,0,1,138.31,31l-4.29,2a4.23,4.23,0,0,0,1.57,1.41,4.86,4.86,0,0,0,2.18.47,7.09,7.09,0,0,0,1.82-.29,3,3,0,0,0,1.71-1c.25-.41.52-.61.82-.61a1,1,0,0,1,.7.3,1,1,0,0,1,.31.69c0,.83-.67,1.55-2,2.15A8.37,8.37,0,0,1,137.77,37Zm-.3-10.22a2.88,2.88,0,0,0-2.28,1.06A7.19,7.19,0,0,0,133.83,31l3.45-1.64a14.54,14.54,0,0,0,2.89-1.72A3.84,3.84,0,0,0,137.47,26.75Z" transform="translate(-0.99 -4.1)"/><path d="M153.89,37.19c-.15,0-.4-.16-.78-.49a5.21,5.21,0,0,1-.75-.82,14.39,14.39,0,0,1-1.9.88,4.1,4.1,0,0,1-1.36.3,4.66,4.66,0,0,1-3.83-1.48,6.66,6.66,0,0,1-1.13-4.27A6.43,6.43,0,0,1,146,26.67a6,6,0,0,1,4.46-1.93,5.9,5.9,0,0,1,2.19.5c1,.42,1.53.93,1.53,1.52a.78.78,0,0,1-.23.54,8.59,8.59,0,0,0-.17,1.4c0,.65-.07,1.48-.07,2.5a8.77,8.77,0,0,0,.19,2.2,16.79,16.79,0,0,0,.7,2c.06.13.14.33.26.59l.07.19a1,1,0,0,1-.31.74A1,1,0,0,1,153.89,37.19Zm-2.34-7.8a9.76,9.76,0,0,1,.06-1c0-.38.11-.78.19-1.21a7.45,7.45,0,0,0-.71-.32,1.86,1.86,0,0,0-.48-.1,3.91,3.91,0,0,0-3,1.42,4.79,4.79,0,0,0-1.26,3.27,4.73,4.73,0,0,0,.65,2.76,2.21,2.21,0,0,0,1.95.93,3.93,3.93,0,0,0,1.83-.4,6.13,6.13,0,0,0,1.13-.85A40.67,40.67,0,0,1,151.55,29.39Z" transform="translate(-0.99 -4.1)"/><path d="M166,29.9c0,.54,0,1.35,0,2.42s0,1.89,0,2.43c0,.16,0,.41,0,.75s0,.59,0,.75a1,1,0,0,1-.33.79,1.08,1.08,0,0,1-.79.31c-.58,0-1-.36-1.1-1.07a6.87,6.87,0,0,1-3.23.73,4.23,4.23,0,0,1-2.44-.65,2.94,2.94,0,0,1-1.27-2.1,36.83,36.83,0,0,1-.43-5.29,21.32,21.32,0,0,1,.33-3.5,1,1,0,0,1,1.07-1,1.12,1.12,0,0,1,.81.31,1.07,1.07,0,0,1,.32.79,12.8,12.8,0,0,1-.16,1.65,12.85,12.85,0,0,0-.16,1.73q0,1.88.12,3.21a11.23,11.23,0,0,0,.37,2.14,3.47,3.47,0,0,0,.73.31,2.5,2.5,0,0,0,.71.11,11.49,11.49,0,0,0,3.17-.49V32l0-2.17a36.55,36.55,0,0,1,.21-4.21,1,1,0,0,1,1.09-1,1.12,1.12,0,0,1,.81.31,1,1,0,0,1,.3.79Z" transform="translate(-0.99 -4.1)"/></g><g id="katman_1" data-name="katman 1"><path class="cls-2" d="M44.59,26.19H23.39c-2.68,0-4.69,1.88-4.48,4.15l2.34,25.81c.14,1.58,2,2.84,4.18,2.84H42.55c2.17,0,4-1.26,4.18-2.84l2.34-25.81C49.28,28.07,47.27,26.19,44.59,26.19Z" transform="translate(-0.99 -4.1)"/><rect class="cls-3" x="44.85" y="42.51" width="13.84" height="26.53" rx="4.09" transform="translate(115.21 11.19) rotate(100.73)"/><path class="cls-4" d="M63.51,65l-2.95-.56c-5.91-1.12-4.62-7.92,1.28-6.8l3,.56-3-.56c-5.9-1.12-4.61-7.92,1.29-6.8l2.95.56Z" transform="translate(-0.99 -4.1)"/><rect class="cls-3" x="9.56" y="42.55" width="13.84" height="26.53" rx="4.09" transform="translate(67.26 25.13) rotate(79.27)"/><path class="cls-4" d="M2.16,51.48l3-.56C11,49.8,12.3,56.6,6.4,57.72l-2.95.56,3-.56c5.9-1.12,7.19,5.68,1.29,6.8l-3,.56Z" transform="translate(-0.99 -4.1)"/><rect class="cls-3" x="35.7" y="32.53" width="13.84" height="30.48" rx="4.09" transform="translate(3.35 -7.64) rotate(5.01)"/><path class="cls-4" d="M34.39,62.35l.27-3c.52-6,7.41-5.38,6.89.61l-.26,3,.26-3c.52-6,7.41-5.38,6.89.6l-.26,3Z" transform="translate(-0.99 -4.1)"/><rect class="cls-3" x="17.12" y="32.53" width="13.84" height="30.48" rx="4.09" transform="translate(51.17 89.17) rotate(174.99)"/><path class="cls-4" d="M18.48,63.56l-.27-3c-.52-6,6.37-6.59,6.9-.61l.26,3-.26-3c-.53-6,6.36-6.59,6.89-.6l.26,3Z" transform="translate(-0.99 -4.1)"/><rect class="cls-4" x="17.4" y="7.91" width="10" height="15" rx="3" transform="translate(-2.79 -1.08) rotate(-7.42)"/><rect class="cls-4" x="37.23" y="5.32" width="10" height="15" rx="3" transform="translate(-2.29 1.46) rotate(-7.42)"/><rect class="cls-5" x="19.21" y="10.92" width="6" height="6" rx="2" transform="translate(-2.6 -1.11) rotate(-7.42)"/><rect class="cls-5" x="39.04" y="8.33" width="6" height="6" rx="2" transform="translate(-2.1 1.43) rotate(-7.42)"/><path class="cls-2" d="M22,11.93h0a2,2,0,0,1,2.24,1.73h0a2,2,0,0,1-1.72,2.24h0a2,2,0,0,1-2.25-1.72h0A2,2,0,0,1,22,11.93Z" transform="translate(-0.99 -4.1)"/><path class="cls-2" d="M41.78,9.35h0A2,2,0,0,1,44,11.08h0a2,2,0,0,1-1.72,2.24h0a2,2,0,0,1-2.24-1.73h0A2,2,0,0,1,41.78,9.35Z" transform="translate(-0.99 -4.1)"/><rect class="cls-6" x="8.61" y="16.53" width="50" height="15" rx="3" transform="translate(-3.81 0.44) rotate(-7.42)"/><rect class="cls-7" x="11.61" y="19.53" width="44" height="9" rx="3" transform="translate(-3.81 0.44) rotate(-7.42)"/><path class="cls-8" d="M12.38,31.33l4.29-9.63,6.61,8.21,4.29-9.63,6.62,8.21,4.29-9.63,6.62,8.21,4.29-9.63L56,25.65" transform="translate(-0.99 -4.1)"/></g></svg>