<?xml version="1.0" encoding="utf-8"?>
<!-- Generator: Adobe Illustrator 23.0.6, SVG Export Plug-In . SVG Version: 6.00 Build 0)  -->
<svg version="1.1" xmlns="http://www.w3.org/2000/svg" xmlns:xlink="http://www.w3.org/1999/xlink" x="0px" y="0px"
	 viewBox="0 0 183.7 72.5" style="enable-background:new 0 0 183.7 72.5;" xml:space="preserve">
<style type="text/css">
	.st0{fill:none;stroke:#1D1D1B;stroke-width:2;}
	.st1{fill:#1D1D1B;}
	.st2{fill:#FFFFFF;stroke:#1D1D1B;}
	.st3{fill:#FFFFFF;stroke:#1D1D1B;stroke-width:2;}
	.st4{fill:#FFFFFF;stroke:#1D1D1B;stroke-width:0.25;}
	.st5{fill:#1D1D1B;stroke:#1D1D1B;stroke-width:2;}
	.st6{fill:#FFFFFF;}
	.st7{fill:none;stroke:#000000;stroke-width:2;}
</style>
<g id="etc">
	<g>
		<path d="M82.4,48.2c-0.1-0.1-0.1-0.3-0.1-0.4c0-0.1,0.1-0.2,0.1-0.3c0.1-0.1,0.2-0.1,0.3-0.1s0.2,0,0.3,0.1
			c0.2,0.2,0.4,0.4,0.6,0.5c0.2,0.1,0.5,0.2,0.7,0.2l0.2-0.1c0.1,0,0.1-0.1,0.1-0.1c0,0,0,0,0,0c0,0,0,0,0-0.1c0,0,0-0.1,0.1-0.1
			c0,0,0-0.1,0-0.1s0-0.1,0-0.1c0,0,0-0.1,0-0.1c0,0,0-0.1,0-0.1L85,47.3c0,0,0-0.1-0.1-0.1s0-0.1-0.1-0.1c-0.2-0.1-0.4-0.2-0.5-0.3
			c-0.2-0.1-0.4-0.1-0.5-0.2c-0.2-0.1-0.3-0.1-0.5-0.2c-0.2-0.1-0.3-0.2-0.5-0.5c-0.1-0.2-0.2-0.4-0.2-0.6c0-0.2,0-0.5,0.1-0.7
			c0.1-0.2,0.2-0.4,0.4-0.6c0.2-0.2,0.4-0.3,0.6-0.3c0.3-0.1,0.6-0.1,0.9,0c0.3,0.1,0.6,0.2,0.9,0.3c0.1,0.1,0.2,0.2,0.2,0.3
			c0,0.1,0,0.2,0,0.3c-0.1,0.1-0.1,0.2-0.2,0.2c-0.1,0-0.2,0-0.4-0.1c-0.2-0.1-0.4-0.2-0.5-0.2c-0.2,0-0.4,0-0.6,0c0,0,0,0-0.1,0
			c0,0,0,0-0.1,0c-0.1,0.1-0.1,0.2-0.2,0.3c0,0.1-0.1,0.2,0,0.3c0,0,0,0.1,0.1,0.1c0,0,0,0.1,0.1,0.1c0,0,0,0.1,0.1,0.1
			c0.2,0.1,0.4,0.2,0.6,0.2c0.2,0.1,0.4,0.1,0.6,0.2c0.2,0.1,0.4,0.2,0.5,0.3c0.2,0.1,0.3,0.3,0.4,0.5c0.2,0.4,0.2,0.8,0.1,1.2
			c-0.1,0.4-0.4,0.7-0.7,0.9c-0.1,0.1-0.2,0.1-0.3,0.2c-0.1,0-0.2,0.1-0.3,0.1c-0.4,0-0.8-0.1-1.2-0.3C83,48.8,82.6,48.5,82.4,48.2z
			"/>
		<path d="M86.8,46.2c0.1-0.2,0.2-0.5,0.3-0.7c0.1-0.2,0.3-0.4,0.4-0.6c0.2-0.2,0.3-0.4,0.5-0.5c0.2-0.1,0.4-0.2,0.7-0.3
			c0.4-0.1,0.8-0.1,1.1,0.1c0.3,0.2,0.6,0.4,0.8,0.7c0.2,0.3,0.3,0.7,0.4,1.1c0.1,0.4,0,0.8,0,1.2c-0.1,0.5-0.3,0.9-0.6,1.3
			c-0.3,0.4-0.6,0.7-1,0.9c-0.3,0.1-0.6,0.2-0.9,0.1c-0.3,0-0.5-0.1-0.8-0.3c-0.2-0.2-0.4-0.4-0.6-0.6c-0.2-0.3-0.3-0.6-0.3-0.9
			c0-0.2,0-0.4,0-0.6c0-0.2,0-0.4,0.1-0.6L86.8,46.2z M87.6,46.5c0,0.2,0,0.3-0.1,0.4c0,0.1,0,0.3,0,0.5c0,0.2,0.1,0.4,0.2,0.6
			c0.1,0.2,0.2,0.3,0.4,0.4c0.1,0.1,0.3,0.1,0.5,0.1c0.2,0,0.4-0.1,0.5-0.2c0.2-0.2,0.4-0.4,0.6-0.6c0.1-0.2,0.2-0.5,0.3-0.8
			c0.1-0.2,0.1-0.5,0-0.7c0-0.3-0.1-0.5-0.2-0.7c-0.1-0.2-0.3-0.3-0.5-0.4c-0.2-0.1-0.4-0.1-0.7,0c-0.3,0.1-0.5,0.3-0.7,0.6
			C87.8,45.9,87.7,46.2,87.6,46.5z"/>
		<path d="M91.9,46.2c0.1-0.2,0.2-0.5,0.3-0.7c0.1-0.2,0.3-0.4,0.4-0.6c0.2-0.2,0.3-0.4,0.5-0.5c0.2-0.1,0.4-0.2,0.7-0.3
			c0.4-0.1,0.8-0.1,1.1,0.1c0.3,0.2,0.6,0.4,0.8,0.7s0.3,0.7,0.4,1.1c0.1,0.4,0,0.8,0,1.2c-0.1,0.5-0.3,0.9-0.6,1.3
			c-0.3,0.4-0.6,0.7-1,0.9c-0.3,0.1-0.6,0.2-0.9,0.1c-0.3,0-0.5-0.1-0.8-0.3c-0.2-0.2-0.4-0.4-0.6-0.6c-0.2-0.3-0.3-0.6-0.3-0.9
			c0-0.2,0-0.4,0-0.6c0-0.2,0-0.4,0.1-0.6L91.9,46.2z M92.8,46.5c0,0.2,0,0.3-0.1,0.4c0,0.1,0,0.3,0,0.5c0,0.2,0.1,0.4,0.2,0.6
			c0.1,0.2,0.2,0.3,0.4,0.4c0.1,0.1,0.3,0.1,0.5,0.1c0.2,0,0.4-0.1,0.5-0.2c0.2-0.2,0.4-0.4,0.6-0.6c0.1-0.2,0.2-0.5,0.3-0.8
			c0.1-0.2,0.1-0.5,0-0.7c0-0.3-0.1-0.5-0.2-0.7c-0.1-0.2-0.3-0.3-0.5-0.4c-0.2-0.1-0.4-0.1-0.7,0c-0.3,0.1-0.5,0.3-0.7,0.6
			C93,45.9,92.9,46.2,92.8,46.5z"/>
		<path d="M100.9,49.1c-0.1,0.1-0.2,0.1-0.3,0.1c-0.1,0-0.2,0-0.3-0.1c-0.1-0.1-0.1-0.2-0.2-0.4c0-0.4,0-0.7,0-1.1
			c0-0.4,0-0.7,0-1.1c0-0.3,0-0.5,0-0.8c0-0.3,0-0.5,0-0.8c-0.1-0.1-0.1-0.2-0.2-0.2c-0.1,0-0.2,0-0.2,0c-0.2,0-0.5,0.1-0.7,0.2
			c-0.2,0.1-0.4,0.3-0.6,0.5c-0.1,0.1-0.1,0.2-0.2,0.3c0,0.1-0.1,0.2-0.1,0.4c0,0.4,0,0.8,0,1.2c0,0.4,0,0.8,0,1.2
			c0,0.2-0.1,0.3-0.1,0.4c-0.1,0.1-0.2,0.1-0.3,0.1c-0.1,0-0.2,0-0.3-0.1c-0.1-0.1-0.1-0.2-0.2-0.4c0-0.4,0-0.7,0-1.1s0-0.7,0-1
			c0-0.3,0-0.7,0-1s0-0.7,0-1.1c0-0.2,0.1-0.3,0.2-0.3c0.1-0.1,0.2-0.1,0.3-0.1c0.1,0,0.2,0,0.3,0.1c0.1,0.1,0.1,0.2,0.2,0.3v0.1
			c0.2-0.2,0.4-0.3,0.7-0.5c0.3-0.1,0.5-0.2,0.8-0.2c0.3,0,0.5,0.1,0.8,0.2s0.4,0.3,0.6,0.6c0.1,0.1,0.1,0.2,0.1,0.4
			c0,0.2,0,0.3,0,0.5c0,0.2,0,0.3,0,0.5c0,0.2,0,0.3,0,0.5v1.4v0.8C101.1,48.9,101,49,100.9,49.1z"/>
		<path d="M105.8,46.2c0.1-0.2,0.2-0.5,0.3-0.7c0.1-0.2,0.3-0.4,0.4-0.6c0.2-0.2,0.3-0.4,0.5-0.5c0.2-0.1,0.4-0.2,0.7-0.3
			c0.4-0.1,0.8-0.1,1.1,0.1s0.6,0.4,0.8,0.7c0.2,0.3,0.3,0.7,0.4,1.1c0.1,0.4,0,0.8,0,1.2c-0.1,0.5-0.3,0.9-0.6,1.3
			c-0.3,0.4-0.6,0.7-1,0.9c-0.3,0.1-0.6,0.2-0.9,0.1c-0.3,0-0.5-0.1-0.8-0.3c-0.2-0.2-0.4-0.4-0.6-0.6c-0.2-0.3-0.3-0.6-0.3-0.9
			c0-0.2,0-0.4,0-0.6c0-0.2,0-0.4,0.1-0.6L105.8,46.2z M106.6,46.5c0,0.2,0,0.3-0.1,0.4c0,0.1,0,0.3,0,0.5c0,0.2,0.1,0.4,0.2,0.6
			c0.1,0.2,0.2,0.3,0.4,0.4c0.1,0.1,0.3,0.1,0.5,0.1c0.2,0,0.4-0.1,0.5-0.2c0.2-0.2,0.4-0.4,0.6-0.6c0.1-0.2,0.2-0.5,0.3-0.8
			c0.1-0.2,0.1-0.5,0-0.7c0-0.3-0.1-0.5-0.2-0.7c-0.1-0.2-0.3-0.3-0.5-0.4c-0.2-0.1-0.4-0.1-0.7,0c-0.3,0.1-0.5,0.3-0.7,0.6
			C106.9,45.9,106.7,46.2,106.6,46.5z"/>
		<path d="M114.7,49.1c-0.1,0.1-0.2,0.1-0.3,0.1c-0.1,0-0.2,0-0.3-0.1c-0.1-0.1-0.1-0.2-0.2-0.4c0-0.4,0-0.7,0-1.1
			c0-0.4,0-0.7,0-1.1c0-0.3,0-0.5,0-0.8c0-0.3,0-0.5,0-0.8c-0.1-0.1-0.1-0.2-0.2-0.2c-0.1,0-0.2,0-0.2,0c-0.2,0-0.5,0.1-0.7,0.2
			c-0.2,0.1-0.4,0.3-0.6,0.5c-0.1,0.1-0.1,0.2-0.2,0.3c0,0.1-0.1,0.2-0.1,0.4c0,0.4,0,0.8,0,1.2c0,0.4,0,0.8,0,1.2
			c0,0.2-0.1,0.3-0.1,0.4c-0.1,0.1-0.2,0.1-0.3,0.1c-0.1,0-0.2,0-0.3-0.1c-0.1-0.1-0.1-0.2-0.2-0.4c0-0.4,0-0.7,0-1.1s0-0.7,0-1
			c0-0.3,0-0.7,0-1s0-0.7,0-1.1c0-0.2,0.1-0.3,0.2-0.3c0.1-0.1,0.2-0.1,0.3-0.1c0.1,0,0.2,0,0.3,0.1c0.1,0.1,0.1,0.2,0.2,0.3v0.1
			c0.2-0.2,0.4-0.3,0.7-0.5c0.3-0.1,0.5-0.2,0.8-0.2c0.3,0,0.5,0.1,0.8,0.2c0.2,0.1,0.4,0.3,0.6,0.6c0.1,0.1,0.1,0.2,0.1,0.4
			c0,0.2,0,0.3,0,0.5c0,0.2,0,0.3,0,0.5c0,0.2,0,0.3,0,0.5v1.4v0.8C114.9,48.9,114.8,49,114.7,49.1z"/>
		<path d="M120.6,48.9c-0.1,0.1-0.2,0.1-0.3,0.1c-0.1,0-0.2-0.1-0.3-0.1c-0.1-0.1-0.1-0.2-0.1-0.3c0-0.1,0-0.2,0.1-0.4l0,0v-6
			c0-0.1,0.1-0.3,0.2-0.3c0.1-0.1,0.2-0.1,0.3-0.1c0.1,0,0.2,0,0.3,0.1c0.1,0.1,0.2,0.2,0.2,0.3v2.7c0.2-0.2,0.3-0.3,0.5-0.4
			c0.2-0.1,0.3-0.2,0.5-0.2c0.1,0,0.3-0.1,0.5-0.1c0.2,0,0.4,0,0.5,0.1c0.2,0.1,0.3,0.2,0.5,0.3c0.2,0.1,0.4,0.3,0.5,0.5
			c0.1,0.2,0.2,0.5,0.2,0.7c0,0.3,0.1,0.5,0.1,0.8c0,0.3,0,0.5-0.1,0.7c0,0.1,0,0.2-0.1,0.4c-0.1,0.1-0.1,0.2-0.2,0.3
			c-0.1,0.2-0.2,0.4-0.4,0.5c-0.2,0.1-0.4,0.3-0.6,0.4c-0.2,0.1-0.4,0.2-0.7,0.2c-0.2,0-0.4,0-0.6,0c-0.2,0-0.3,0-0.5-0.1
			C120.9,49,120.8,48.9,120.6,48.9C120.6,48.8,120.6,48.8,120.6,48.9z M120.9,46.3v1.6c0,0,0.1,0,0.1,0.1c0,0,0,0,0,0c0,0,0,0,0,0
			c0.4,0.2,0.7,0.2,1.1,0.1c0.3-0.1,0.6-0.3,0.9-0.6c0.1-0.2,0.1-0.4,0.2-0.5c0-0.2,0-0.3,0-0.5s0-0.3,0-0.5c0-0.2-0.1-0.3-0.1-0.5
			c0,0-0.1-0.1-0.1-0.1c0,0-0.1-0.1-0.1-0.1c0,0-0.1,0-0.1-0.1c0,0-0.1,0-0.1-0.1c0,0-0.1,0-0.1,0c0,0-0.1,0-0.1,0
			c-0.3,0.1-0.6,0.2-0.9,0.4C121.4,45.7,121.2,45.9,120.9,46.3L120.9,46.3z"/>
		<path d="M125.1,46.2c0.1-0.2,0.2-0.5,0.3-0.7c0.1-0.2,0.3-0.4,0.4-0.6c0.2-0.2,0.3-0.4,0.5-0.5c0.2-0.1,0.4-0.2,0.7-0.3
			c0.4-0.1,0.8-0.1,1.1,0.1s0.6,0.4,0.8,0.7s0.3,0.7,0.4,1.1c0.1,0.4,0,0.8,0,1.2c-0.1,0.5-0.3,0.9-0.6,1.3c-0.3,0.4-0.6,0.7-1,0.9
			c-0.3,0.1-0.6,0.2-0.9,0.1c-0.3,0-0.5-0.1-0.8-0.3c-0.2-0.2-0.4-0.4-0.6-0.6c-0.2-0.3-0.3-0.6-0.3-0.9c0-0.2,0-0.4,0-0.6
			c0-0.2,0-0.4,0.1-0.6L125.1,46.2z M126,46.5c0,0.2,0,0.3-0.1,0.4c0,0.1,0,0.3,0,0.5c0,0.2,0.1,0.4,0.2,0.6
			c0.1,0.2,0.2,0.3,0.4,0.4c0.1,0.1,0.3,0.1,0.5,0.1c0.2,0,0.4-0.1,0.5-0.2c0.2-0.2,0.4-0.4,0.6-0.6c0.1-0.2,0.2-0.5,0.3-0.8
			c0.1-0.2,0.1-0.5,0-0.7c0-0.3-0.1-0.5-0.2-0.7c-0.1-0.2-0.3-0.3-0.5-0.4c-0.2-0.1-0.4-0.1-0.7,0c-0.3,0.1-0.5,0.3-0.7,0.6
			C126.2,45.9,126.1,46.2,126,46.5z"/>
		<path d="M130.4,45c-0.1-0.1-0.2-0.1-0.2-0.2c-0.1-0.1-0.1-0.2-0.1-0.3c0-0.1,0-0.2,0.1-0.3c0.1-0.1,0.2-0.1,0.3-0.1
			c0.1,0,0.2,0,0.4,0.1c0.2,0.1,0.3,0.2,0.4,0.3c0.2-0.2,0.5-0.4,0.7-0.5c0.2-0.1,0.5-0.2,0.7-0.2c0.1,0,0.2,0,0.3,0.1
			c0.1,0,0.3,0.1,0.4,0.2s0.3,0.2,0.4,0.3c0.1,0.1,0.2,0.3,0.2,0.4c0,0.1,0,0.2-0.1,0.3c-0.1,0.1-0.2,0.1-0.3,0.1
			c-0.1,0-0.2,0-0.2-0.1c-0.1-0.1-0.1-0.1-0.2-0.2c-0.1-0.1-0.1-0.1-0.2-0.2c-0.1,0-0.1-0.1-0.2-0.1c-0.1,0-0.2,0-0.3,0.1
			c-0.1,0.1-0.2,0.1-0.4,0.2c-0.1,0.1-0.2,0.2-0.3,0.3c-0.1,0.1-0.2,0.2-0.3,0.3v3.1c0,0.2-0.1,0.3-0.1,0.4
			c-0.1,0.1-0.2,0.1-0.3,0.1c-0.1,0-0.2,0-0.3-0.1c-0.1-0.1-0.1-0.2-0.2-0.4v-3.2c0,0,0,0,0-0.1c0,0,0,0,0-0.1c0,0,0,0,0-0.1
			c0,0,0,0,0-0.1L130.4,45C130.5,45,130.5,45,130.4,45z"/>
		<path d="M138.2,48.5C138.2,48.6,138.2,48.6,138.2,48.5c0,0.1,0,0.2,0,0.3c0,0.1-0.1,0.2-0.1,0.2c-0.1,0.1-0.1,0.1-0.2,0.1
			c-0.1,0-0.2,0-0.3-0.1c-0.1-0.1-0.1-0.1-0.2-0.2c-0.1-0.1-0.1-0.2-0.2-0.2c-0.1,0.1-0.3,0.3-0.5,0.4c-0.2,0.1-0.3,0.2-0.5,0.2
			c-0.3,0-0.6,0-0.9,0c-0.3,0-0.6-0.1-0.8-0.3c-0.2-0.2-0.4-0.4-0.5-0.6c-0.1-0.2-0.2-0.5-0.2-0.7c0-0.2,0-0.5,0-0.8
			c0-0.3,0.1-0.5,0.2-0.7c0-0.1,0.1-0.2,0.1-0.3c0.1-0.1,0.1-0.2,0.2-0.3c0.1-0.2,0.2-0.3,0.3-0.4c0.1-0.1,0.2-0.3,0.3-0.4
			c0.1-0.1,0.2-0.1,0.3-0.2c0.1-0.1,0.2-0.1,0.3-0.2c0.1,0,0.2-0.1,0.3-0.1c0.1-0.1,0.3-0.1,0.4-0.1c0.2,0,0.3-0.1,0.5-0.1
			s0.3,0,0.4,0.1c0.1,0,0.2,0,0.3,0.1c0.1,0.1,0.2,0.2,0.2,0.3c0,0.5,0,1.1,0,1.6c0,0.5,0,1.1,0.1,1.6c0,0.1,0,0.2,0.1,0.2
			c0,0.1,0.1,0.2,0.2,0.3c0.1,0.1,0.1,0.2,0.1,0.3C138.2,48.5,138.2,48.5,138.2,48.5z M136.8,47.7C136.8,47.7,136.8,47.7,136.8,47.7
			C136.8,47.7,136.9,47.7,136.8,47.7c0-0.5-0.1-1-0.1-1.5c0-0.5,0-1,0-1.4c-0.1,0-0.1,0-0.2,0c-0.1,0-0.2,0-0.2,0.1
			c-0.1,0-0.1,0.1-0.2,0.1c-0.1,0-0.1,0-0.1,0.1c-0.2,0.1-0.4,0.2-0.6,0.4c-0.2,0.2-0.3,0.4-0.4,0.6c-0.1,0.2-0.2,0.4-0.2,0.7
			c-0.1,0.2-0.1,0.5-0.1,0.7c0,0.1,0,0.1,0.1,0.2c0,0.1,0,0.1,0.1,0.2c0,0,0.1,0.1,0.1,0.1c0,0,0.1,0.1,0.1,0.1
			c0.1,0,0.1,0.1,0.2,0.1c0.1,0,0.1,0,0.2,0.1c0.1,0,0.2,0,0.4,0c0.1,0,0.2,0,0.3,0c0.1-0.1,0.2-0.2,0.3-0.2
			C136.6,47.9,136.7,47.8,136.8,47.7z"/>
		<path d="M139.2,42.4c0-0.2,0.1-0.3,0.2-0.4c0.1-0.1,0.2-0.2,0.4-0.2c0.1,0,0.3,0.1,0.4,0.2c0.1,0.1,0.2,0.3,0.2,0.4
			c0,0.2-0.1,0.3-0.2,0.4c-0.1,0.1-0.2,0.2-0.4,0.2c-0.1,0-0.3-0.1-0.4-0.2C139.2,42.7,139.2,42.6,139.2,42.4z M140.2,48.7
			c0,0.2-0.1,0.3-0.1,0.4c-0.1,0.1-0.2,0.1-0.3,0.1c-0.1,0-0.2,0-0.3-0.1c-0.1-0.1-0.1-0.2-0.2-0.4c0-0.7,0-1.5,0-2.2
			c0-0.8,0-1.5,0-2.2c0-0.2,0.1-0.3,0.2-0.3c0.1-0.1,0.2-0.1,0.3-0.1c0.1,0,0.2,0,0.3,0.1c0.1,0.1,0.1,0.2,0.2,0.3
			c0,0.7,0,1.5,0,2.2C140.2,47.2,140.2,47.9,140.2,48.7z"/>
		<path d="M145.4,49.1c-0.1,0.1-0.2,0.1-0.3,0.1c-0.1,0-0.2,0-0.3-0.1c-0.1-0.1-0.1-0.2-0.2-0.4c0-0.4,0-0.7,0-1.1
			c0-0.4,0-0.7,0-1.1c0-0.3,0-0.5,0-0.8c0-0.3,0-0.5,0-0.8c-0.1-0.1-0.1-0.2-0.2-0.2c-0.1,0-0.2,0-0.2,0c-0.2,0-0.5,0.1-0.7,0.2
			c-0.2,0.1-0.4,0.3-0.6,0.5c-0.1,0.1-0.1,0.2-0.2,0.3c0,0.1-0.1,0.2-0.1,0.4c0,0.4,0,0.8,0,1.2c0,0.4,0,0.8,0,1.2
			c0,0.2-0.1,0.3-0.1,0.4c-0.1,0.1-0.2,0.1-0.3,0.1c-0.1,0-0.2,0-0.3-0.1c-0.1-0.1-0.1-0.2-0.2-0.4c0-0.4,0-0.7,0-1.1s0-0.7,0-1
			c0-0.3,0-0.7,0-1s0-0.7,0-1.1c0-0.2,0.1-0.3,0.2-0.3c0.1-0.1,0.2-0.1,0.3-0.1c0.1,0,0.2,0,0.3,0.1c0.1,0.1,0.1,0.2,0.2,0.3v0.1
			c0.2-0.2,0.4-0.3,0.7-0.5c0.3-0.1,0.5-0.2,0.8-0.2c0.3,0,0.5,0.1,0.8,0.2c0.2,0.1,0.4,0.3,0.6,0.6c0.1,0.1,0.1,0.2,0.1,0.4
			c0,0.2,0,0.3,0,0.5c0,0.2,0,0.3,0,0.5c0,0.2,0,0.3,0,0.5v1.4v0.8C145.5,48.9,145.5,49,145.4,49.1z"/>
		<path d="M146.8,42.4c0-0.2,0.1-0.3,0.2-0.4c0.1-0.1,0.2-0.2,0.4-0.2c0.1,0,0.3,0.1,0.4,0.2c0.1,0.1,0.2,0.3,0.2,0.4
			c0,0.2-0.1,0.3-0.2,0.4c-0.1,0.1-0.2,0.2-0.4,0.2c-0.1,0-0.3-0.1-0.4-0.2C146.9,42.7,146.8,42.6,146.8,42.4z M147.8,48.7
			c0,0.2-0.1,0.3-0.1,0.4c-0.1,0.1-0.2,0.1-0.3,0.1c-0.1,0-0.2,0-0.3-0.1c-0.1-0.1-0.1-0.2-0.2-0.4c0-0.7,0-1.5,0-2.2
			c0-0.8,0-1.5,0-2.2c0-0.2,0.1-0.3,0.2-0.3c0.1-0.1,0.2-0.1,0.3-0.1c0.1,0,0.2,0,0.3,0.1c0.1,0.1,0.1,0.2,0.2,0.3
			c0,0.7,0,1.5,0,2.2C147.8,47.2,147.8,47.9,147.8,48.7z"/>
		<path d="M150.4,48.4c0,0.2-0.1,0.3-0.2,0.5c-0.1,0.1-0.3,0.2-0.5,0.2c-0.2,0-0.4-0.1-0.5-0.2c-0.1-0.1-0.2-0.3-0.2-0.5
			s0.1-0.3,0.2-0.5c0.1-0.1,0.3-0.2,0.5-0.2c0.2,0,0.3,0.1,0.5,0.2C150.4,48.1,150.4,48.3,150.4,48.4z"/>
		<path d="M154.3,47.8c0.1-0.1,0.2-0.2,0.4-0.2c0.1,0,0.2,0.1,0.3,0.1c0.1,0.1,0.1,0.2,0.1,0.3c0,0.1,0,0.3-0.1,0.4
			c-0.2,0.3-0.5,0.5-0.8,0.6c-0.3,0.1-0.6,0.1-1,0.1c-0.3-0.1-0.6-0.2-0.9-0.4c-0.3-0.2-0.5-0.5-0.6-0.9c-0.1-0.2-0.1-0.4-0.2-0.7
			c0-0.2,0-0.5,0-0.7c0-0.4,0.1-0.7,0.2-1.1c0.1-0.4,0.3-0.7,0.6-1c0.2-0.3,0.5-0.5,0.9-0.6s0.7-0.1,1.1,0c0.2,0.1,0.4,0.2,0.5,0.3
			c0.2,0.1,0.3,0.2,0.5,0.4c0.1,0.1,0.1,0.2,0.1,0.4s0,0.2-0.1,0.3c-0.1,0.1-0.1,0.1-0.2,0.1c-0.1,0-0.2,0-0.4-0.1
			c-0.2-0.3-0.5-0.4-0.7-0.5c-0.2-0.1-0.4,0-0.6,0.1c-0.2,0.1-0.4,0.2-0.5,0.4s-0.3,0.4-0.3,0.7c-0.1,0.3-0.1,0.5-0.1,0.8
			c0,0.3,0.1,0.5,0.2,0.8c0.1,0.2,0.2,0.4,0.4,0.5c0.1,0.1,0.3,0.2,0.5,0.2c0.2,0,0.3,0,0.5-0.1C154,48.1,154.1,48,154.3,47.8z"/>
		<path d="M155.8,46.2c0.1-0.2,0.2-0.5,0.3-0.7c0.1-0.2,0.3-0.4,0.4-0.6c0.2-0.2,0.3-0.4,0.5-0.5c0.2-0.1,0.4-0.2,0.7-0.3
			c0.4-0.1,0.8-0.1,1.1,0.1c0.3,0.2,0.6,0.4,0.8,0.7c0.2,0.3,0.3,0.7,0.4,1.1c0.1,0.4,0,0.8,0,1.2c-0.1,0.5-0.3,0.9-0.6,1.3
			c-0.3,0.4-0.6,0.7-1,0.9c-0.3,0.1-0.6,0.2-0.9,0.1c-0.3,0-0.5-0.1-0.8-0.3c-0.2-0.2-0.4-0.4-0.6-0.6c-0.2-0.3-0.3-0.6-0.3-0.9
			c0-0.2,0-0.4,0-0.6c0-0.2,0-0.4,0.1-0.6L155.8,46.2z M156.7,46.5c0,0.2,0,0.3-0.1,0.4c0,0.1,0,0.3,0,0.5c0,0.2,0.1,0.4,0.2,0.6
			c0.1,0.2,0.2,0.3,0.4,0.4c0.1,0.1,0.3,0.1,0.5,0.1c0.2,0,0.4-0.1,0.5-0.2c0.2-0.2,0.4-0.4,0.6-0.6c0.1-0.2,0.2-0.5,0.3-0.8
			c0.1-0.2,0.1-0.5,0-0.7c0-0.3-0.1-0.5-0.2-0.7c-0.1-0.2-0.3-0.3-0.5-0.4c-0.2-0.1-0.4-0.1-0.7,0c-0.3,0.1-0.5,0.3-0.7,0.6
			C156.9,45.9,156.8,46.2,156.7,46.5z"/>
		<path d="M163.7,45.8C163.7,45.7,163.7,45.7,163.7,45.8l0-0.2c-0.1-0.2-0.2-0.4-0.4-0.5s-0.4-0.2-0.6-0.2c-0.2,0.1-0.3,0.1-0.5,0.2
			l-0.2,0.3c0,0,0,0.1-0.1,0.1c0,0,0,0-0.1,0.1v3.2c0,0.2-0.1,0.3-0.1,0.4c-0.1,0.1-0.2,0.1-0.3,0.1c-0.1,0-0.2,0-0.3-0.1
			c-0.1-0.1-0.1-0.2-0.2-0.4v-4.5c0-0.2,0.1-0.3,0.2-0.3c0.1-0.1,0.2-0.1,0.3-0.1c0.1,0,0.2,0,0.3,0.1c0.1,0.1,0.1,0.2,0.2,0.3
			c0.1-0.1,0.3-0.2,0.4-0.2c0.2-0.1,0.3-0.1,0.5-0.1c0.3,0,0.5,0.1,0.8,0.2c0.3,0.1,0.5,0.3,0.7,0.5c0.1-0.1,0.2-0.2,0.3-0.3
			c0.1-0.1,0.2-0.2,0.3-0.2c0.1-0.1,0.2-0.1,0.3-0.2c0.1-0.1,0.2-0.1,0.3-0.1c0.2,0,0.4,0,0.7,0.1c0.2,0.1,0.4,0.2,0.6,0.3
			c0.2,0.1,0.3,0.3,0.4,0.5c0.1,0.2,0.2,0.4,0.2,0.6c0,0,0,0,0,0c0,0,0,0,0,0c0,0,0,0,0,0c0,0,0,0,0,0v3.1c0,0.2-0.1,0.3-0.1,0.4
			c-0.1,0.1-0.2,0.1-0.3,0.1c-0.1,0-0.2,0-0.3-0.1c-0.1-0.1-0.1-0.2-0.2-0.4v-3.2c-0.1-0.3-0.2-0.5-0.4-0.5
			c-0.2-0.1-0.3-0.1-0.5-0.1c-0.2,0-0.4,0.1-0.5,0.1c-0.2,0.1-0.3,0.3-0.4,0.6v3.1c0,0.2-0.1,0.3-0.1,0.4c-0.1,0.1-0.2,0.1-0.3,0.1
			c-0.1,0-0.2,0-0.3-0.1c-0.1-0.1-0.1-0.2-0.2-0.4L163.7,45.8C163.7,45.8,163.7,45.8,163.7,45.8z"/>
	</g>
	<g>
		<path class="st0" d="M165.2,59.5H82c-4.6,0-8.4-3.8-8.4-8.4V21.8l-7.5-8.4H82h83.2c4.6,0,8.4,3.8,8.4,8.4v29.3
			C173.5,55.7,169.8,59.5,165.2,59.5z"/>
	</g>
	<g>
		<path d="M93.7,23.9c-0.5,0-0.8-0.3-1.1-0.8c-0.2-0.5-0.4-0.8-0.6-0.9c-0.2-0.1-0.5-0.1-1.2-0.1c-1.1,0-2.3,0.8-3.6,2.5
			c-1.8,2.2-2.7,4.3-2.7,6.3c0,1,0.3,1.8,0.9,2.5c0.6,0.7,1.4,1.1,2.3,1.1c0.8,0,1.5-0.2,2.3-0.6c0.4-0.2,1.1-0.7,2-1.3
			c0.4-0.3,0.7-0.5,1-0.5c0.3,0,0.6,0.1,0.8,0.4c0.2,0.2,0.3,0.5,0.3,0.8c0,0.3-0.1,0.6-0.4,0.9c-2,1.8-4,2.6-6,2.6
			c-1.5,0-2.9-0.6-3.9-1.8c-1-1.2-1.5-2.5-1.5-4.1c0-2.5,1.1-5.1,3.2-7.8c1.8-2.2,3.6-3.3,5.4-3.3c0.4,0,0.7,0,1,0.1
			s0.5,0.1,0.8,0.2c0.3-0.4,0.6-0.6,1-0.6c0.5,0,0.8,0.3,1,1c0.1,0.6,0.2,1.4,0.2,2.2c0,0.3-0.1,0.6-0.2,0.8
			C94.3,23.7,94,23.9,93.7,23.9z"/>
		<path d="M106.1,37.1c-0.5,0-0.9-0.3-1-0.9c-0.2-0.6-0.3-1.5-0.5-2.6c-0.1-1.1-0.2-2-0.2-2.7c0-0.2,0-0.5,0-0.9c0-0.4,0-0.7,0-0.9
			c0-1.4-0.4-2.1-1.1-2.1c-1,0-1.8,0.4-2.5,1.3c-0.4,0.4-0.9,1.3-1.6,2.5c0,2.9-0.1,4.5-0.4,5.1c-0.2,0.5-0.5,0.7-1,0.7
			c-0.3,0-0.6-0.1-0.8-0.3c-0.2-0.2-0.3-0.5-0.3-0.8c0-0.1,0-0.3,0.1-0.5c0.1-0.2,0.1-0.7,0.1-1.6l0-1.7l0-8.2
			c0.1-0.9,0.1-1.6,0.1-1.9c0-0.4,0-0.7-0.1-1.1s-0.1-0.7-0.1-1.1c0-0.3,0.1-0.6,0.3-0.8s0.5-0.3,0.8-0.3c0.6,0,1,0.3,1.1,1
			c0.1,0.7,0.2,1.4,0.2,2c0,0.8,0,1.6-0.1,2.5c0,0.8-0.1,1.6-0.1,2.5l0,1c0.6-0.8,1.3-1.4,2-1.8c0.7-0.4,1.4-0.6,2.2-0.6
			c1.2,0,2.1,0.4,2.6,1.2c0.3,0.6,0.5,1.5,0.6,2.9l0.1,2.1l0.2,2.3c0.1,0.9,0.2,1.6,0.4,2.3c0,0.1,0,0.2,0,0.3
			c0,0.3-0.1,0.6-0.3,0.8C106.6,37,106.4,37.1,106.1,37.1z"/>
		<path d="M118.7,37.2c-0.1,0-0.4-0.2-0.8-0.5c-0.3-0.3-0.6-0.6-0.8-0.8c-0.7,0.4-1.3,0.7-1.9,0.9c-0.5,0.2-1,0.3-1.4,0.3
			c-1.8,0-3-0.5-3.8-1.5c-0.8-0.9-1.1-2.3-1.1-4.3c0-1.8,0.6-3.4,1.9-4.6c1.2-1.3,2.7-1.9,4.5-1.9c0.7,0,1.4,0.2,2.2,0.5
			c1,0.4,1.5,0.9,1.5,1.5c0,0.2-0.1,0.4-0.2,0.5c-0.1,0.3-0.1,0.8-0.2,1.4c0,0.7-0.1,1.5-0.1,2.5c0,0.9,0.1,1.7,0.2,2.2
			c0.1,0.3,0.3,1,0.7,2c0.1,0.1,0.1,0.3,0.3,0.6l0.1,0.2c0,0.3-0.1,0.5-0.3,0.7C119.2,37.1,119,37.2,118.7,37.2z M116.4,29.4
			c0-0.3,0-0.7,0.1-1s0.1-0.8,0.2-1.2c-0.3-0.1-0.5-0.2-0.7-0.3s-0.4-0.1-0.5-0.1c-1.2,0-2.2,0.5-3,1.4c-0.8,0.9-1.3,2-1.3,3.3
			c0,1.2,0.2,2.1,0.7,2.8c0.4,0.6,1.1,0.9,2,0.9c0.7,0,1.3-0.1,1.8-0.4c0.3-0.1,0.6-0.4,1.1-0.9C116.5,31.9,116.4,30.4,116.4,29.4z"
			/>
		<path d="M129.2,26.9c-0.2,0-0.3,0-0.6,0c-0.2,0-0.4,0-0.6,0c-0.2,0-0.7,0.1-1.5,0.2l0.2,6.6l0,0.5l0,0.6c0,1.6-0.4,2.5-1.2,2.5
			c-0.3,0-0.6-0.1-0.8-0.3c-0.2-0.2-0.3-0.4-0.3-0.7c0-0.3,0-0.7,0-1.3s0-1,0-1.3l-0.2-6.6c-0.5,0-1.4-0.1-2.5-0.2
			c-0.7-0.1-1-0.5-1-1.1c0-0.3,0.1-0.6,0.3-0.8s0.5-0.3,0.8-0.3l2.4,0.2c0-0.4,0-0.9-0.1-1.5c0-0.6,0-1.1,0-1.4
			c0-0.3,0.1-0.6,0.3-0.8c0.2-0.2,0.5-0.3,0.8-0.3c0.7,0,1.1,0.5,1.2,1.6c0,0.3,0,0.6,0,1l0,0.7l0,0.7c0.9-0.1,1.5-0.2,1.6-0.2
			c0.8,0,1.3,0,1.5,0.1c0.5,0.1,0.7,0.5,0.7,1.1c0,0.3-0.1,0.6-0.3,0.8C129.8,26.8,129.5,26.9,129.2,26.9z"/>
		<path d="M137.8,37c-1.7,0-3.1-0.4-4.1-1.3c-1.1-0.9-1.7-2.2-1.7-3.9c0-1.9,0.5-3.6,1.4-4.9c1-1.4,2.4-2.2,4.1-2.2
			c1.2,0,2.3,0.2,3,0.6c1,0.5,1.4,1.3,1.4,2.4c0,0.7-0.4,1.4-1.3,2c-0.4,0.3-1.2,0.7-2.4,1.3l-4.3,2c0.4,0.6,0.9,1.1,1.6,1.4
			c0.6,0.3,1.4,0.5,2.2,0.5c0.5,0,1.1-0.1,1.8-0.3c0.9-0.2,1.5-0.6,1.7-1s0.5-0.6,0.8-0.6c0.3,0,0.5,0.1,0.7,0.3s0.3,0.4,0.3,0.7
			c0,0.8-0.7,1.5-2,2.1C140,36.7,138.9,37,137.8,37z M137.5,26.7c-0.9,0-1.7,0.4-2.3,1.1c-0.6,0.7-1.1,1.8-1.4,3.2l3.4-1.6
			c1.4-0.7,2.3-1.2,2.9-1.7C139.5,27,138.6,26.7,137.5,26.7z"/>
		<path d="M153.9,37.2c-0.1,0-0.4-0.2-0.8-0.5c-0.3-0.3-0.6-0.6-0.8-0.8c-0.7,0.4-1.3,0.7-1.9,0.9c-0.5,0.2-1,0.3-1.4,0.3
			c-1.8,0-3-0.5-3.8-1.5c-0.8-0.9-1.1-2.3-1.1-4.3c0-1.8,0.6-3.4,1.9-4.6c1.2-1.3,2.7-1.9,4.5-1.9c0.7,0,1.4,0.2,2.2,0.5
			c1,0.4,1.5,0.9,1.5,1.5c0,0.2-0.1,0.4-0.2,0.5c-0.1,0.3-0.1,0.8-0.2,1.4c0,0.7-0.1,1.5-0.1,2.5c0,0.9,0.1,1.7,0.2,2.2
			c0.1,0.3,0.3,1,0.7,2c0.1,0.1,0.1,0.3,0.3,0.6l0.1,0.2c0,0.3-0.1,0.5-0.3,0.7C154.4,37.1,154.2,37.2,153.9,37.2z M151.6,29.4
			c0-0.3,0-0.7,0.1-1s0.1-0.8,0.2-1.2c-0.3-0.1-0.5-0.2-0.7-0.3s-0.4-0.1-0.5-0.1c-1.2,0-2.2,0.5-3,1.4c-0.8,0.9-1.3,2-1.3,3.3
			c0,1.2,0.2,2.1,0.7,2.8c0.4,0.6,1.1,0.9,2,0.9c0.7,0,1.3-0.1,1.8-0.4c0.3-0.1,0.6-0.4,1.1-0.9C151.7,31.9,151.6,30.4,151.6,29.4z"
			/>
		<path d="M166,29.9c0,0.5,0,1.3,0,2.4c0,1.1,0,1.9,0,2.4c0,0.2,0,0.4,0,0.8c0,0.3,0,0.6,0,0.8c0,0.3-0.1,0.6-0.3,0.8
			c-0.2,0.2-0.5,0.3-0.8,0.3c-0.6,0-0.9-0.4-1.1-1.1c-0.9,0.5-2,0.7-3.2,0.7c-1,0-1.8-0.2-2.4-0.7c-0.7-0.5-1.1-1.2-1.3-2.1
			c-0.3-2-0.4-3.7-0.4-5.3c0-1,0.1-2.2,0.3-3.5c0.1-0.7,0.5-1,1.1-1c0.3,0,0.6,0.1,0.8,0.3c0.2,0.2,0.3,0.5,0.3,0.8
			c0,0.3-0.1,0.9-0.2,1.6c-0.1,0.8-0.2,1.3-0.2,1.7c0,1.2,0,2.3,0.1,3.2c0.1,0.9,0.2,1.6,0.4,2.1c0.2,0.1,0.5,0.2,0.7,0.3
			c0.2,0.1,0.5,0.1,0.7,0.1c1,0,2.1-0.2,3.2-0.5l0-2.3l0-2.2c0-1.6,0.1-3,0.2-4.2c0.1-0.7,0.4-1,1.1-1c0.3,0,0.6,0.1,0.8,0.3
			s0.3,0.5,0.3,0.8L166,29.9z"/>
	</g>
</g>
<g id="katman_1">
	<path class="st1" d="M44.6,26.2H23.4c-2.7,0-4.7,1.9-4.5,4.2l2.3,25.8c0.1,1.6,2,2.8,4.2,2.8h17.1c2.2,0,4-1.3,4.2-2.8l2.3-25.8
		C49.3,28.1,47.3,26.2,44.6,26.2z"/>
	<g>
		<path class="st2" d="M64.3,61l1.1-5.6c0.4-2.2-1-4.4-3.3-4.8l-18-3.4c-2.2-0.4-4.4,1-4.8,3.3l-1.1,5.6c-0.4,2.2,1,4.4,3.3,4.8
			l18,3.4C61.7,64.7,63.8,63.2,64.3,61z"/>
		<path class="st3" d="M63.5,65l-3-0.6c-5.9-1.1-4.6-7.9,1.3-6.8l3,0.6l-3-0.6c-5.9-1.1-4.6-7.9,1.3-6.8l3,0.6L63.5,65z"/>
	</g>
	<g>
		<path class="st2" d="M4,61.1l-1.1-5.6c-0.4-2.2,1-4.4,3.3-4.8l18-3.4c2.2-0.4,4.4,1,4.8,3.3l1.1,5.6c0.4,2.2-1,4.4-3.3,4.8
			l-18,3.4C6.5,64.7,4.4,63.3,4,61.1z"/>
		<path class="st3" d="M2.2,51.5l3-0.6c5.9-1.1,7.2,5.7,1.3,6.8l-3,0.6l3-0.6c5.9-1.1,7.2,5.7,1.3,6.8l-3,0.6L2.2,51.5z"/>
	</g>
	<g>
		<path class="st2" d="M44.1,63.2l-5.6-0.5c-2.2-0.2-3.9-2.2-3.7-4.4l1.9-22.2c0.2-2.2,2.2-3.9,4.4-3.7l5.6,0.5
			c2.2,0.2,3.9,2.2,3.7,4.4l-1.9,22.2C48.3,61.7,46.4,63.4,44.1,63.2z"/>
		<path class="st3" d="M34.4,62.3l0.3-3c0.5-6,7.4-5.4,6.9,0.6l-0.3,3l0.3-3c0.5-6,7.4-5.4,6.9,0.6l-0.3,3L34.4,62.3z"/>
	</g>
	<g>
		<path class="st2" d="M22.5,63.2l5.6-0.5c2.2-0.2,3.9-2.2,3.7-4.4L30,36.1c-0.2-2.2-2.2-3.9-4.4-3.7l-5.6,0.5
			C17.6,33,16,35,16.2,37.3l1.9,22.2C18.3,61.7,20.3,63.4,22.5,63.2z"/>
		<path class="st3" d="M18.5,63.6l-0.3-3c-0.5-6,6.4-6.6,6.9-0.6l0.3,3l-0.3-3c-0.5-6,6.4-6.6,6.9-0.6l0.3,3L18.5,63.6z"/>
	</g>
	<g onclick="alert('Tiyze n\'aptin?!', 'TriLizard diyor ki:');">
		<path class="st3" d="M19.4,8.2l4-0.5c1.6-0.2,3.1,0.9,3.4,2.6l1.2,8.9c0.2,1.6-0.9,3.1-2.6,3.4l-4,0.5c-1.6,0.2-3.1-0.9-3.4-2.6
			l-1.2-8.9C16.6,9.9,17.8,8.4,19.4,8.2z"/>
		<path class="st3" d="M39.3,5.6l4-0.5c1.6-0.2,3.1,0.9,3.4,2.6l1.2,8.9c0.2,1.6-0.9,3.1-2.6,3.4l-4,0.5c-1.6,0.2-3.1-0.9-3.4-2.6
			L36.7,9C36.5,7.4,37.6,5.9,39.3,5.6z"/>
		<path class="st4" d="M20.8,11.1l2-0.3c1.1-0.1,2.1,0.6,2.2,1.7l0.3,2c0.1,1.1-0.6,2.1-1.7,2.2l-2,0.3c-1.1,0.1-2.1-0.6-2.2-1.7
			l-0.3-2C19,12.2,19.7,11.2,20.8,11.1z"/>
		<path class="st4" d="M40.7,8.5l2-0.3c1.1-0.1,2.1,0.6,2.2,1.7l0.3,2c0.1,1.1-0.6,2.1-1.7,2.2l-2,0.3c-1.1,0.1-2.1-0.6-2.2-1.7
			l-0.3-2C38.8,9.6,39.6,8.6,40.7,8.5z"/>
		<path class="st1" d="M21.9,11.9L21.9,11.9c1.1-0.1,2.1,0.6,2.2,1.7l0,0c0.1,1.1-0.6,2.1-1.7,2.2l0,0c-1.1,0.1-2.1-0.6-2.2-1.7l0,0
			C20.1,13.1,20.9,12.1,21.9,11.9z"/>
		<path class="st1" d="M41.8,9.4L41.8,9.4c1.1-0.1,2.1,0.6,2.2,1.7l0,0c0.1,1.1-0.6,2.1-1.7,2.2l0,0c-1.1,0.1-2.1-0.6-2.2-1.7l0,0
			C39.9,10.5,40.7,9.5,41.8,9.4z"/>
		<path class="st5" d="M10.8,19.4l43.6-5.7c1.6-0.2,3.1,0.9,3.4,2.6l1.2,8.9c0.2,1.6-0.9,3.1-2.6,3.4l-43.6,5.7
			c-1.6,0.2-3.1-0.9-3.4-2.6l-1.2-8.9C8,21.2,9.2,19.6,10.8,19.4z"/>
		<path class="st6" d="M14.2,22l37.7-4.9c1.6-0.2,3.1,0.9,3.4,2.6l0.4,3c0.2,1.6-0.9,3.1-2.6,3.4l-37.7,4.9
			c-1.6,0.2-3.1-0.9-3.4-2.6l-0.4-3C11.4,23.7,12.5,22.2,14.2,22z"/>
		<path class="st7" d="M12.4,31.3l4.3-9.6l6.6,8.2l4.3-9.6l6.6,8.2l4.3-9.6l6.6,8.2l4.3-9.6l6.6,8.2"/>
	</g>
</g>
</svg>
